<svg width="36" height="36" viewBox="0 0 36 36" fill="none" xmlns="http://www.w3.org/2000/svg">
<path d="M3 4.5H6.75L9.75 25.5H25.5M25.5 25.5C23.8431 25.5 22.5 26.8431 22.5 28.5C22.5 30.1569 23.8431 31.5 25.5 31.5C27.1569 31.5 28.5 30.1569 28.5 28.5C28.5 26.8431 27.1569 25.5 25.5 25.5ZM9.10713 21H27L31.5 7.5H7.17856M16.5 28.5C16.5 30.1569 15.1569 31.5 13.5 31.5C11.8431 31.5 10.5 30.1569 10.5 28.5C10.5 26.8431 11.8431 25.5 13.5 25.5C15.1569 25.5 16.5 26.8431 16.5 28.5Z" stroke="white" stroke-width="2.94545" stroke-linecap="round" stroke-linejoin="round"/>
</svg>
