<svg width="165" height="19" viewBox="0 0 165 19" fill="none" xmlns="http://www.w3.org/2000/svg">
<path d="M10.2 12.072H14.352C14.208 12.44 14.016 12.784 13.776 13.104C13.552 13.424 13.28 13.704 12.96 13.944C12.64 14.168 12.264 14.344 11.832 14.472C11.4 14.584 10.904 14.64 10.344 14.64C9.416 14.64 8.6 14.44 7.896 14.04C7.192 13.64 6.64 13.064 6.24 12.312C5.84 11.544 5.64 10.64 5.64 9.6C5.64 8.544 5.848 7.656 6.264 6.936C6.696 6.216 7.272 5.672 7.992 5.304C8.712 4.936 9.496 4.752 10.344 4.752C11.24 4.752 11.968 4.96 12.528 5.376C13.088 5.792 13.536 6.304 13.872 6.912L18.12 4.872C17.576 4.088 16.936 3.392 16.2 2.784C15.464 2.16 14.608 1.672 13.632 1.32C12.672 0.951999 11.576 0.767999 10.344 0.767999C8.984 0.767999 7.72 0.975999 6.552 1.392C5.384 1.792 4.368 2.384 3.504 3.168C2.64 3.936 1.968 4.864 1.488 5.952C1.008 7.04 0.768 8.256 0.768 9.6C0.768 10.944 1 12.176 1.464 13.296C1.928 14.4 2.576 15.352 3.408 16.152C4.256 16.936 5.248 17.544 6.384 17.976C7.536 18.408 8.792 18.624 10.152 18.624C11.624 18.624 12.928 18.368 14.064 17.856C15.2 17.328 16.144 16.608 16.896 15.696C17.648 14.784 18.2 13.72 18.552 12.504C18.904 11.288 19.024 9.992 18.912 8.616H10.2V12.072ZM23.7816 15.288H32.6616L32.5416 11.856H23.9256L23.7816 15.288ZM28.1736 8.088L30.4056 13.128L30.1416 14.328L32.0616 18H37.3416L28.1736 0.0719991L19.0296 18H24.3096L26.2536 14.16L25.9656 13.128L28.1736 8.088ZM43.9136 10.272L48.2336 16.44L52.5776 10.272L53.5136 18H58.4576L55.5536 0.36L48.2336 10.032L40.9376 0.36L38.0336 18H42.9776L43.9136 10.272ZM64.1226 18H72.5946V14.232H64.1226V18ZM64.1226 4.968H72.5946V1.2H64.1226V4.968ZM64.1226 11.088H72.1146V7.44H64.1226V11.088ZM60.9546 1.2V18H65.4186V1.2H60.9546ZM94.2653 1.2V9.744L83.0093 0.36V18H87.4733V9.456L98.7293 18.84V1.2H94.2653ZM105.349 18H113.821V14.232H105.349V18ZM105.349 4.968H113.821V1.2H105.349V4.968ZM105.349 11.088H113.341V7.44H105.349V11.088ZM102.181 1.2V18H106.645V1.2H102.181ZM134.311 1.2V12.48C134.311 13.616 134.495 14.584 134.863 15.384C135.231 16.184 135.735 16.84 136.375 17.352C137.031 17.848 137.783 18.216 138.631 18.456C139.495 18.696 140.407 18.816 141.367 18.816C142.343 18.816 143.255 18.696 144.103 18.456C144.951 18.216 145.703 17.848 146.359 17.352C147.015 16.84 147.527 16.184 147.895 15.384C148.263 14.584 148.447 13.616 148.447 12.48V1.2H143.791V12.096C143.791 12.864 143.591 13.488 143.191 13.968C142.791 14.432 142.183 14.664 141.367 14.664C140.567 14.664 139.967 14.432 139.567 13.968C139.167 13.488 138.967 12.864 138.967 12.096V1.2H134.311ZM153.983 11.856L150.815 14.16C151.183 14.992 151.727 15.752 152.447 16.44C153.167 17.112 154.015 17.64 154.991 18.024C155.983 18.424 157.055 18.624 158.207 18.624C159.023 18.624 159.823 18.504 160.607 18.264C161.391 18.04 162.087 17.704 162.695 17.256C163.319 16.792 163.807 16.216 164.159 15.528C164.527 14.84 164.711 14.048 164.711 13.152C164.711 12.48 164.607 11.872 164.399 11.328C164.191 10.784 163.895 10.304 163.511 9.888C163.127 9.456 162.671 9.088 162.143 8.784C161.631 8.464 161.063 8.192 160.439 7.968C159.719 7.712 159.079 7.48 158.519 7.272C157.975 7.048 157.543 6.816 157.223 6.576C156.919 6.32 156.767 6.008 156.767 5.64C156.767 5.32 156.903 5.064 157.175 4.872C157.447 4.68 157.815 4.584 158.279 4.584C158.647 4.584 159.007 4.656 159.359 4.8C159.711 4.944 160.039 5.152 160.343 5.424C160.663 5.68 160.943 6.008 161.183 6.408L164.687 4.464C164.383 3.888 163.951 3.32 163.391 2.76C162.831 2.184 162.119 1.712 161.255 1.344C160.391 0.959999 159.367 0.767999 158.183 0.767999C157.047 0.767999 156.015 0.959999 155.087 1.344C154.159 1.728 153.415 2.288 152.855 3.024C152.295 3.744 152.015 4.632 152.015 5.688C152.015 6.52 152.167 7.24 152.471 7.848C152.791 8.456 153.183 8.968 153.647 9.384C154.127 9.8 154.623 10.144 155.135 10.416C155.647 10.672 156.111 10.88 156.527 11.04C157.375 11.36 158.031 11.632 158.495 11.856C158.975 12.08 159.311 12.304 159.503 12.528C159.695 12.736 159.791 13 159.791 13.32C159.791 13.768 159.623 14.112 159.287 14.352C158.951 14.576 158.527 14.688 158.015 14.688C157.487 14.688 156.975 14.576 156.479 14.352C155.983 14.128 155.527 13.808 155.111 13.392C154.695 12.96 154.319 12.448 153.983 11.856Z" fill="#28C3C3"/>
<path d="M126.497 1.2L124.097 5.664L121.745 1.2H115.961L121.217 9.432L115.361 18H121.145L124.049 12.84L126.857 18H132.665L126.929 9.432L132.305 1.2H126.497Z" fill="white"/>
</svg>
